<mxfile>
    <diagram id="qajqCv2ngGzNVGj3OD6F" name="Page-1">
        <mxGraphModel dx="1374" dy="790" grid="1" gridSize="10" guides="1" tooltips="1" connect="1" arrows="1" fold="1" page="1" pageScale="1" pageWidth="827" pageHeight="1169" background="#F1FAEE" math="0" shadow="0">
            <root>
                <mxCell id="0"/>
                <mxCell id="1" parent="0"/>
                <mxCell id="44" value="" style="group" parent="1" vertex="1" connectable="0">
                    <mxGeometry x="460" y="410" width="180" height="30" as="geometry"/>
                </mxCell>
                <mxCell id="45" value="" style="endArrow=classic;html=1;fontColor=#1D3557;strokeColor=#000000;jumpSize=24;endSize=11;startSize=7;strokeWidth=3;" parent="44" edge="1">
                    <mxGeometry width="50" height="50" relative="1" as="geometry">
                        <mxPoint x="180" y="30" as="sourcePoint"/>
                        <mxPoint y="30" as="targetPoint"/>
                    </mxGeometry>
                </mxCell>
                <mxCell id="46" value="&lt;font style=&quot;font-size: 20px&quot;&gt;dac_data_i1&lt;/font&gt;" style="text;html=1;align=center;verticalAlign=middle;resizable=0;points=[];autosize=1;fontColor=#1D3557;strokeWidth=4;" parent="44" vertex="1">
                    <mxGeometry x="30" y="5" width="120" height="20" as="geometry"/>
                </mxCell>
                <mxCell id="47" value="" style="group" parent="1" vertex="1" connectable="0">
                    <mxGeometry x="460" y="441" width="180" height="30" as="geometry"/>
                </mxCell>
                <mxCell id="48" value="" style="endArrow=classic;html=1;fontColor=#1D3557;strokeColor=#000000;jumpSize=24;endSize=11;startSize=7;strokeWidth=3;" parent="47" edge="1">
                    <mxGeometry width="50" height="50" relative="1" as="geometry">
                        <mxPoint x="180" y="30" as="sourcePoint"/>
                        <mxPoint y="30" as="targetPoint"/>
                    </mxGeometry>
                </mxCell>
                <mxCell id="49" value="&lt;font style=&quot;font-size: 20px&quot;&gt;dac_data_q1&lt;/font&gt;" style="text;html=1;align=center;verticalAlign=middle;resizable=0;points=[];autosize=1;fontColor=#1D3557;strokeWidth=4;" parent="47" vertex="1">
                    <mxGeometry x="25" y="5" width="130" height="20" as="geometry"/>
                </mxCell>
                <mxCell id="53" value="" style="group" parent="1" vertex="1" connectable="0">
                    <mxGeometry x="460" y="500" width="180" height="30" as="geometry"/>
                </mxCell>
                <mxCell id="54" value="" style="endArrow=classic;html=1;fontColor=#1D3557;strokeColor=#000000;jumpSize=24;endSize=11;startSize=7;" parent="53" edge="1">
                    <mxGeometry width="50" height="50" relative="1" as="geometry">
                        <mxPoint x="180" y="30" as="sourcePoint"/>
                        <mxPoint y="30" as="targetPoint"/>
                    </mxGeometry>
                </mxCell>
                <mxCell id="55" value="&lt;font style=&quot;font-size: 20px&quot;&gt;rx_status&lt;/font&gt;" style="text;html=1;align=center;verticalAlign=middle;resizable=0;points=[];autosize=1;fontColor=#1D3557;strokeWidth=4;" parent="53" vertex="1">
                    <mxGeometry x="40" y="5" width="100" height="20" as="geometry"/>
                </mxCell>
                <mxCell id="50" value="" style="group" parent="53" vertex="1" connectable="0">
                    <mxGeometry y="-25" width="180" height="30" as="geometry"/>
                </mxCell>
                <mxCell id="51" value="" style="endArrow=classic;html=1;fontColor=#1D3557;strokeColor=#000000;jumpSize=24;endSize=11;startSize=7;strokeWidth=1;" parent="50" edge="1">
                    <mxGeometry width="50" height="50" relative="1" as="geometry">
                        <mxPoint x="180" y="30" as="sourcePoint"/>
                        <mxPoint y="30" as="targetPoint"/>
                    </mxGeometry>
                </mxCell>
                <mxCell id="52" value="&lt;font style=&quot;font-size: 20px&quot;&gt;dac_valid&lt;/font&gt;" style="text;html=1;align=center;verticalAlign=middle;resizable=0;points=[];autosize=1;fontColor=#1D3557;strokeWidth=4;" parent="50" vertex="1">
                    <mxGeometry x="40" y="5" width="100" height="20" as="geometry"/>
                </mxCell>
                <mxCell id="2" value="&lt;font style=&quot;font-size: 24px&quot;&gt;ad936x_lvds_if&lt;/font&gt;" style="whiteSpace=wrap;html=1;rounded=0;sketch=0;strokeColor=#457B9D;fillColor=#A8DADC;fontColor=#1D3557;" parent="1" vertex="1">
                    <mxGeometry x="240" y="170" width="220" height="620" as="geometry"/>
                </mxCell>
                <mxCell id="8" value="" style="group" parent="1" vertex="1" connectable="0">
                    <mxGeometry x="60" y="275" width="180" height="30" as="geometry"/>
                </mxCell>
                <mxCell id="9" value="" style="endArrow=classic;html=1;fontColor=#1D3557;strokeColor=#000000;jumpSize=24;endSize=11;startSize=7;" parent="8" edge="1">
                    <mxGeometry width="50" height="50" relative="1" as="geometry">
                        <mxPoint y="30" as="sourcePoint"/>
                        <mxPoint x="180" y="30" as="targetPoint"/>
                    </mxGeometry>
                </mxCell>
                <mxCell id="10" value="&lt;font style=&quot;font-size: 20px&quot;&gt;rx_clk_in_n&lt;/font&gt;" style="text;html=1;align=center;verticalAlign=middle;resizable=0;points=[];autosize=1;fontColor=#1D3557;strokeWidth=4;" parent="8" vertex="1">
                    <mxGeometry x="30" y="5" width="120" height="20" as="geometry"/>
                </mxCell>
                <mxCell id="7" value="" style="group" parent="8" vertex="1" connectable="0">
                    <mxGeometry y="-35.56999999999999" width="180" height="30" as="geometry"/>
                </mxCell>
                <mxCell id="5" value="" style="endArrow=classic;html=1;fontColor=#1D3557;strokeColor=#000000;jumpSize=24;endSize=11;startSize=7;" parent="7" edge="1">
                    <mxGeometry width="50" height="50" relative="1" as="geometry">
                        <mxPoint y="40" as="sourcePoint"/>
                        <mxPoint x="180" y="40" as="targetPoint"/>
                    </mxGeometry>
                </mxCell>
                <mxCell id="11" value="" style="group" parent="1" vertex="1" connectable="0">
                    <mxGeometry x="60" y="305" width="180" height="30" as="geometry"/>
                </mxCell>
                <mxCell id="12" value="" style="endArrow=classic;html=1;fontColor=#1D3557;strokeColor=#000000;jumpSize=24;endSize=11;startSize=7;" parent="11" edge="1">
                    <mxGeometry width="50" height="50" relative="1" as="geometry">
                        <mxPoint y="25" as="sourcePoint"/>
                        <mxPoint x="180" y="25" as="targetPoint"/>
                    </mxGeometry>
                </mxCell>
                <mxCell id="13" value="&lt;font style=&quot;font-size: 20px&quot;&gt;rx_frame_in_p&lt;/font&gt;" style="text;html=1;align=center;verticalAlign=middle;resizable=0;points=[];autosize=1;fontColor=#1D3557;strokeWidth=4;" parent="11" vertex="1">
                    <mxGeometry x="20" width="140" height="20" as="geometry"/>
                </mxCell>
                <mxCell id="14" value="" style="group" parent="1" vertex="1" connectable="0">
                    <mxGeometry x="60" y="340" width="180" height="30" as="geometry"/>
                </mxCell>
                <mxCell id="15" value="" style="endArrow=classic;html=1;fontColor=#1D3557;strokeColor=#000000;jumpSize=24;endSize=11;startSize=7;" parent="14" edge="1">
                    <mxGeometry width="50" height="50" relative="1" as="geometry">
                        <mxPoint y="20" as="sourcePoint"/>
                        <mxPoint x="180" y="20" as="targetPoint"/>
                    </mxGeometry>
                </mxCell>
                <mxCell id="16" value="&lt;font style=&quot;font-size: 20px&quot;&gt;rx_frame_in_n&lt;/font&gt;" style="text;html=1;align=center;verticalAlign=middle;resizable=0;points=[];autosize=1;fontColor=#1D3557;strokeWidth=4;" parent="14" vertex="1">
                    <mxGeometry x="20" y="-5" width="140" height="20" as="geometry"/>
                </mxCell>
                <mxCell id="19" value="" style="group;strokeWidth=7;" parent="1" vertex="1" connectable="0">
                    <mxGeometry x="60" y="364" width="180" height="30" as="geometry"/>
                </mxCell>
                <mxCell id="20" value="" style="endArrow=classic;html=1;fontColor=#1D3557;strokeColor=#000000;jumpSize=24;endSize=11;startSize=7;strokeWidth=3;" parent="19" edge="1">
                    <mxGeometry width="50" height="50" relative="1" as="geometry">
                        <mxPoint y="30" as="sourcePoint"/>
                        <mxPoint x="180" y="30" as="targetPoint"/>
                    </mxGeometry>
                </mxCell>
                <mxCell id="21" value="&lt;font style=&quot;font-size: 20px&quot;&gt;rx_data_in_p&lt;/font&gt;" style="text;html=1;align=center;verticalAlign=middle;resizable=0;points=[];autosize=1;fontColor=#1D3557;strokeWidth=4;" parent="19" vertex="1">
                    <mxGeometry x="25" y="5" width="130" height="20" as="geometry"/>
                </mxCell>
                <mxCell id="22" value="" style="group;strokeWidth=7;" parent="1" vertex="1" connectable="0">
                    <mxGeometry x="60" y="404" width="180" height="30" as="geometry"/>
                </mxCell>
                <mxCell id="23" value="" style="endArrow=classic;html=1;fontColor=#1D3557;strokeColor=#000000;jumpSize=24;endSize=11;startSize=7;strokeWidth=3;" parent="22" edge="1">
                    <mxGeometry width="50" height="50" relative="1" as="geometry">
                        <mxPoint y="30" as="sourcePoint"/>
                        <mxPoint x="180" y="30" as="targetPoint"/>
                    </mxGeometry>
                </mxCell>
                <mxCell id="24" value="&lt;font style=&quot;font-size: 20px&quot;&gt;rx_data_in_n&lt;/font&gt;" style="text;html=1;align=center;verticalAlign=middle;resizable=0;points=[];autosize=1;fontColor=#1D3557;strokeWidth=4;" parent="22" vertex="1">
                    <mxGeometry x="25" y="5" width="130" height="20" as="geometry"/>
                </mxCell>
                <mxCell id="26" value="" style="group" parent="1" vertex="1" connectable="0">
                    <mxGeometry x="460" y="230" width="180" height="30" as="geometry"/>
                </mxCell>
                <mxCell id="27" value="" style="endArrow=classic;html=1;fontColor=#1D3557;strokeColor=#000000;jumpSize=24;endSize=11;startSize=7;strokeWidth=3;" parent="26" edge="1">
                    <mxGeometry width="50" height="50" relative="1" as="geometry">
                        <mxPoint y="30" as="sourcePoint"/>
                        <mxPoint x="180" y="30" as="targetPoint"/>
                    </mxGeometry>
                </mxCell>
                <mxCell id="28" value="&lt;font style=&quot;font-size: 20px&quot;&gt;adc_data_i1&lt;/font&gt;" style="text;html=1;align=center;verticalAlign=middle;resizable=0;points=[];autosize=1;fontColor=#1D3557;strokeWidth=4;" parent="26" vertex="1">
                    <mxGeometry x="30" y="5" width="120" height="20" as="geometry"/>
                </mxCell>
                <mxCell id="29" value="" style="group" parent="1" vertex="1" connectable="0">
                    <mxGeometry x="460" y="260" width="180" height="30" as="geometry"/>
                </mxCell>
                <mxCell id="30" value="" style="endArrow=classic;html=1;fontColor=#1D3557;strokeColor=#000000;jumpSize=24;endSize=11;startSize=7;strokeWidth=3;" parent="29" edge="1">
                    <mxGeometry width="50" height="50" relative="1" as="geometry">
                        <mxPoint y="30" as="sourcePoint"/>
                        <mxPoint x="180" y="30" as="targetPoint"/>
                    </mxGeometry>
                </mxCell>
                <mxCell id="31" value="&lt;font style=&quot;font-size: 20px&quot;&gt;adc_data_q1&lt;/font&gt;" style="text;html=1;align=center;verticalAlign=middle;resizable=0;points=[];autosize=1;fontColor=#1D3557;strokeWidth=4;" parent="29" vertex="1">
                    <mxGeometry x="25" y="5" width="130" height="20" as="geometry"/>
                </mxCell>
                <mxCell id="38" value="" style="group" parent="1" vertex="1" connectable="0">
                    <mxGeometry x="460" y="290" width="180" height="30" as="geometry"/>
                </mxCell>
                <mxCell id="39" value="" style="endArrow=classic;html=1;fontColor=#1D3557;strokeColor=#000000;jumpSize=24;endSize=11;startSize=7;" parent="38" edge="1">
                    <mxGeometry width="50" height="50" relative="1" as="geometry">
                        <mxPoint y="30" as="sourcePoint"/>
                        <mxPoint x="180" y="30" as="targetPoint"/>
                    </mxGeometry>
                </mxCell>
                <mxCell id="40" value="&lt;font style=&quot;font-size: 20px&quot;&gt;adc_valid&lt;/font&gt;" style="text;html=1;align=center;verticalAlign=middle;resizable=0;points=[];autosize=1;fontColor=#1D3557;strokeWidth=4;" parent="38" vertex="1">
                    <mxGeometry x="40" y="5" width="100" height="20" as="geometry"/>
                </mxCell>
                <mxCell id="41" value="" style="group" parent="1" vertex="1" connectable="0">
                    <mxGeometry x="460" y="320" width="180" height="30" as="geometry"/>
                </mxCell>
                <mxCell id="42" value="" style="endArrow=classic;html=1;fontColor=#1D3557;strokeColor=#000000;jumpSize=24;endSize=11;startSize=7;" parent="41" edge="1">
                    <mxGeometry width="50" height="50" relative="1" as="geometry">
                        <mxPoint y="30" as="sourcePoint"/>
                        <mxPoint x="180" y="30" as="targetPoint"/>
                    </mxGeometry>
                </mxCell>
                <mxCell id="43" value="&lt;font style=&quot;font-size: 20px&quot;&gt;rx_status&lt;/font&gt;" style="text;html=1;align=center;verticalAlign=middle;resizable=0;points=[];autosize=1;fontColor=#1D3557;strokeWidth=4;" parent="41" vertex="1">
                    <mxGeometry x="40" y="5" width="100" height="20" as="geometry"/>
                </mxCell>
                <mxCell id="56" value="" style="group" parent="1" vertex="1" connectable="0">
                    <mxGeometry x="460" y="525" width="180" height="30" as="geometry"/>
                </mxCell>
                <mxCell id="57" value="" style="endArrow=classic;html=1;fontColor=#1D3557;strokeColor=#000000;jumpSize=24;endSize=11;startSize=7;" parent="56" edge="1">
                    <mxGeometry width="50" height="50" relative="1" as="geometry">
                        <mxPoint x="180" y="30" as="sourcePoint"/>
                        <mxPoint y="30" as="targetPoint"/>
                    </mxGeometry>
                </mxCell>
                <mxCell id="58" value="&lt;font style=&quot;font-size: 20px&quot;&gt;fb_clk&lt;/font&gt;" style="text;html=1;align=center;verticalAlign=middle;resizable=0;points=[];autosize=1;fontColor=#1D3557;strokeWidth=4;" parent="56" vertex="1">
                    <mxGeometry x="55" y="5" width="70" height="20" as="geometry"/>
                </mxCell>
                <mxCell id="59" value="" style="group" parent="1" vertex="1" connectable="0">
                    <mxGeometry x="460" y="369" width="180" height="30" as="geometry"/>
                </mxCell>
                <mxCell id="60" value="" style="endArrow=classic;html=1;fontColor=#1D3557;strokeColor=#000000;jumpSize=24;endSize=11;startSize=7;" parent="59" edge="1">
                    <mxGeometry width="50" height="50" relative="1" as="geometry">
                        <mxPoint y="30" as="sourcePoint"/>
                        <mxPoint x="180" y="30" as="targetPoint"/>
                    </mxGeometry>
                </mxCell>
                <mxCell id="61" value="&lt;font style=&quot;font-size: 20px&quot;&gt;user_clk&lt;/font&gt;" style="text;html=1;align=center;verticalAlign=middle;resizable=0;points=[];autosize=1;fontColor=#1D3557;strokeWidth=4;" parent="59" vertex="1">
                    <mxGeometry x="45" y="5" width="90" height="20" as="geometry"/>
                </mxCell>
                <mxCell id="6" value="&lt;font style=&quot;font-size: 20px&quot;&gt;rx_clk_in_p&lt;/font&gt;" style="text;html=1;align=center;verticalAlign=middle;resizable=0;points=[];autosize=1;fontColor=#1D3557;strokeWidth=4;" parent="1" vertex="1">
                    <mxGeometry x="90" y="255" width="120" height="20" as="geometry"/>
                </mxCell>
                <mxCell id="63" value="" style="group" parent="1" vertex="1" connectable="0">
                    <mxGeometry x="60" y="470.16" width="180" height="30" as="geometry"/>
                </mxCell>
                <mxCell id="64" value="" style="endArrow=classic;html=1;fontColor=#1D3557;strokeColor=#000000;jumpSize=24;endSize=11;startSize=7;strokeWidth=3;" parent="63" edge="1">
                    <mxGeometry width="50" height="50" relative="1" as="geometry">
                        <mxPoint x="180" y="30" as="sourcePoint"/>
                        <mxPoint y="30" as="targetPoint"/>
                    </mxGeometry>
                </mxCell>
                <mxCell id="65" value="&lt;font style=&quot;font-size: 20px&quot;&gt;tx_data_out_p&lt;/font&gt;" style="text;html=1;align=center;verticalAlign=middle;resizable=0;points=[];autosize=1;fontColor=#1D3557;strokeWidth=4;" parent="63" vertex="1">
                    <mxGeometry x="20" y="5" width="140" height="20" as="geometry"/>
                </mxCell>
                <mxCell id="66" value="" style="group" parent="1" vertex="1" connectable="0">
                    <mxGeometry x="60" y="501.16" width="180" height="30" as="geometry"/>
                </mxCell>
                <mxCell id="67" value="" style="endArrow=classic;html=1;fontColor=#1D3557;strokeColor=#000000;jumpSize=24;endSize=11;startSize=7;strokeWidth=3;" parent="66" edge="1">
                    <mxGeometry width="50" height="50" relative="1" as="geometry">
                        <mxPoint x="180" y="30" as="sourcePoint"/>
                        <mxPoint y="30" as="targetPoint"/>
                    </mxGeometry>
                </mxCell>
                <mxCell id="68" value="&lt;font style=&quot;font-size: 20px&quot;&gt;tx_data_out_n&lt;/font&gt;" style="text;html=1;align=center;verticalAlign=middle;resizable=0;points=[];autosize=1;fontColor=#1D3557;strokeWidth=4;" parent="66" vertex="1">
                    <mxGeometry x="20" y="5" width="140" height="20" as="geometry"/>
                </mxCell>
                <mxCell id="69" value="" style="group" parent="1" vertex="1" connectable="0">
                    <mxGeometry x="60" y="555" width="180" height="30" as="geometry"/>
                </mxCell>
                <mxCell id="70" value="" style="endArrow=classic;html=1;fontColor=#1D3557;strokeColor=#000000;jumpSize=24;endSize=11;startSize=7;" parent="69" edge="1">
                    <mxGeometry width="50" height="50" relative="1" as="geometry">
                        <mxPoint x="180" y="30" as="sourcePoint"/>
                        <mxPoint y="30" as="targetPoint"/>
                    </mxGeometry>
                </mxCell>
                <mxCell id="71" value="&lt;font style=&quot;font-size: 20px&quot;&gt;tx_frame_out_n&lt;/font&gt;" style="text;html=1;align=center;verticalAlign=middle;resizable=0;points=[];autosize=1;fontColor=#1D3557;strokeWidth=4;" parent="69" vertex="1">
                    <mxGeometry x="15" y="5" width="150" height="20" as="geometry"/>
                </mxCell>
                <mxCell id="72" value="" style="group" parent="69" vertex="1" connectable="0">
                    <mxGeometry y="-25" width="180" height="30" as="geometry"/>
                </mxCell>
                <mxCell id="73" value="" style="endArrow=classic;html=1;fontColor=#1D3557;strokeColor=#000000;jumpSize=24;endSize=11;startSize=7;strokeWidth=1;" parent="72" edge="1">
                    <mxGeometry width="50" height="50" relative="1" as="geometry">
                        <mxPoint x="180" y="30" as="sourcePoint"/>
                        <mxPoint y="30" as="targetPoint"/>
                    </mxGeometry>
                </mxCell>
                <mxCell id="74" value="&lt;font style=&quot;font-size: 20px&quot;&gt;tx_frame_out_p&lt;/font&gt;" style="text;html=1;align=center;verticalAlign=middle;resizable=0;points=[];autosize=1;fontColor=#1D3557;strokeWidth=4;" parent="72" vertex="1">
                    <mxGeometry x="15" y="5" width="150" height="20" as="geometry"/>
                </mxCell>
                <mxCell id="75" value="" style="group" parent="1" vertex="1" connectable="0">
                    <mxGeometry x="60" y="585" width="180" height="30" as="geometry"/>
                </mxCell>
                <mxCell id="76" value="" style="endArrow=classic;html=1;fontColor=#1D3557;strokeColor=#000000;jumpSize=24;endSize=11;startSize=7;" parent="75" edge="1">
                    <mxGeometry width="50" height="50" relative="1" as="geometry">
                        <mxPoint x="180" y="30" as="sourcePoint"/>
                        <mxPoint y="30" as="targetPoint"/>
                    </mxGeometry>
                </mxCell>
                <mxCell id="77" value="&lt;font style=&quot;font-size: 20px&quot;&gt;tx_clk_out_p&lt;/font&gt;" style="text;html=1;align=center;verticalAlign=middle;resizable=0;points=[];autosize=1;fontColor=#1D3557;strokeWidth=4;" parent="75" vertex="1">
                    <mxGeometry x="25" y="5" width="130" height="20" as="geometry"/>
                </mxCell>
                <mxCell id="78" value="" style="group" parent="1" vertex="1" connectable="0">
                    <mxGeometry x="60" y="615" width="180" height="30" as="geometry"/>
                </mxCell>
                <mxCell id="79" value="" style="endArrow=classic;html=1;fontColor=#1D3557;strokeColor=#000000;jumpSize=24;endSize=11;startSize=7;" parent="78" edge="1">
                    <mxGeometry width="50" height="50" relative="1" as="geometry">
                        <mxPoint x="180" y="30" as="sourcePoint"/>
                        <mxPoint y="30" as="targetPoint"/>
                    </mxGeometry>
                </mxCell>
                <mxCell id="80" value="&lt;font style=&quot;font-size: 20px&quot;&gt;tx_clk_out_n&lt;/font&gt;" style="text;html=1;align=center;verticalAlign=middle;resizable=0;points=[];autosize=1;fontColor=#1D3557;strokeWidth=4;" parent="78" vertex="1">
                    <mxGeometry x="25" y="5" width="130" height="20" as="geometry"/>
                </mxCell>
                <mxCell id="84" value="" style="group" parent="1" vertex="1" connectable="0">
                    <mxGeometry x="460" y="585" width="210" height="30" as="geometry"/>
                </mxCell>
                <mxCell id="85" value="" style="endArrow=classic;html=1;fontColor=#1D3557;strokeColor=#000000;jumpSize=24;endSize=11;startSize=7;strokeWidth=3;" parent="84" edge="1">
                    <mxGeometry width="50" height="50" relative="1" as="geometry">
                        <mxPoint x="210" y="30" as="sourcePoint"/>
                        <mxPoint y="30" as="targetPoint"/>
                    </mxGeometry>
                </mxCell>
                <mxCell id="86" value="&lt;font style=&quot;font-size: 20px&quot;&gt;rx_delay_value&lt;/font&gt;" style="text;html=1;align=center;verticalAlign=middle;resizable=0;points=[];autosize=1;fontColor=#1D3557;strokeWidth=4;" parent="84" vertex="1">
                    <mxGeometry x="41.996500000000005" y="5" width="150" height="20" as="geometry"/>
                </mxCell>
                <mxCell id="87" value="" style="group" parent="1" vertex="1" connectable="0">
                    <mxGeometry x="460" y="620" width="210" height="30" as="geometry"/>
                </mxCell>
                <mxCell id="88" value="" style="endArrow=classic;html=1;fontColor=#1D3557;strokeColor=#000000;jumpSize=24;endSize=11;startSize=7;strokeWidth=3;" parent="87" edge="1">
                    <mxGeometry width="50" height="50" relative="1" as="geometry">
                        <mxPoint x="210" y="30" as="sourcePoint"/>
                        <mxPoint y="30" as="targetPoint"/>
                    </mxGeometry>
                </mxCell>
                <mxCell id="89" value="&lt;font style=&quot;font-size: 20px&quot;&gt;rx_delay_load_en&lt;/font&gt;" style="text;html=1;align=center;verticalAlign=middle;resizable=0;points=[];autosize=1;fontColor=#1D3557;strokeWidth=4;" parent="87" vertex="1">
                    <mxGeometry x="30.003333333333337" y="5" width="170" height="20" as="geometry"/>
                </mxCell>
                <mxCell id="90" value="" style="group" parent="1" vertex="1" connectable="0">
                    <mxGeometry x="460" y="670" width="180" height="30" as="geometry"/>
                </mxCell>
                <mxCell id="91" value="" style="endArrow=classic;html=1;fontColor=#1D3557;strokeColor=#000000;jumpSize=24;endSize=11;startSize=7;" parent="90" edge="1">
                    <mxGeometry width="50" height="50" relative="1" as="geometry">
                        <mxPoint x="180" y="30" as="sourcePoint"/>
                        <mxPoint y="30" as="targetPoint"/>
                    </mxGeometry>
                </mxCell>
                <mxCell id="92" value="&lt;font style=&quot;font-size: 20px&quot;&gt;ref_clk&lt;/font&gt;" style="text;html=1;align=center;verticalAlign=middle;resizable=0;points=[];autosize=1;fontColor=#1D3557;strokeWidth=4;" parent="90" vertex="1">
                    <mxGeometry x="55" y="5" width="70" height="20" as="geometry"/>
                </mxCell>
                <mxCell id="93" value="" style="group" parent="1" vertex="1" connectable="0">
                    <mxGeometry x="460" y="710" width="180" height="30" as="geometry"/>
                </mxCell>
                <mxCell id="94" value="" style="endArrow=classic;html=1;fontColor=#1D3557;strokeColor=#000000;jumpSize=24;endSize=11;startSize=7;" parent="93" edge="1">
                    <mxGeometry width="50" height="50" relative="1" as="geometry">
                        <mxPoint x="180" y="30" as="sourcePoint"/>
                        <mxPoint y="30" as="targetPoint"/>
                    </mxGeometry>
                </mxCell>
                <mxCell id="95" value="&lt;font style=&quot;font-size: 20px&quot;&gt;rst&lt;/font&gt;" style="text;html=1;align=center;verticalAlign=middle;resizable=0;points=[];autosize=1;fontColor=#1D3557;strokeWidth=4;" parent="93" vertex="1">
                    <mxGeometry x="70" y="5" width="40" height="20" as="geometry"/>
                </mxCell>
                <mxCell id="108" value="&lt;font style=&quot;font-size: 24px&quot;&gt;ad936x_lvds_if_rx&lt;/font&gt;" style="whiteSpace=wrap;html=1;rounded=0;sketch=0;strokeColor=#457B9D;fillColor=#A8DADC;fontColor=#1D3557;" parent="1" vertex="1">
                    <mxGeometry x="250" y="830" width="220" height="370" as="geometry"/>
                </mxCell>
                <mxCell id="109" value="" style="group" parent="1" vertex="1" connectable="0">
                    <mxGeometry x="70" y="945.5699999999999" width="180" height="30" as="geometry"/>
                </mxCell>
                <mxCell id="110" value="" style="endArrow=classic;html=1;fontColor=#1D3557;strokeColor=#000000;jumpSize=24;endSize=11;startSize=7;" parent="109" edge="1">
                    <mxGeometry width="50" height="50" relative="1" as="geometry">
                        <mxPoint y="30" as="sourcePoint"/>
                        <mxPoint x="180" y="30" as="targetPoint"/>
                    </mxGeometry>
                </mxCell>
                <mxCell id="111" value="&lt;font style=&quot;font-size: 20px&quot;&gt;rx_clk_in_n&lt;/font&gt;" style="text;html=1;align=center;verticalAlign=middle;resizable=0;points=[];autosize=1;fontColor=#1D3557;strokeWidth=4;" parent="109" vertex="1">
                    <mxGeometry x="30" y="5" width="120" height="20" as="geometry"/>
                </mxCell>
                <mxCell id="112" value="" style="group" parent="109" vertex="1" connectable="0">
                    <mxGeometry y="-35.56999999999999" width="180" height="30" as="geometry"/>
                </mxCell>
                <mxCell id="113" value="" style="endArrow=classic;html=1;fontColor=#1D3557;strokeColor=#000000;jumpSize=24;endSize=11;startSize=7;" parent="112" edge="1">
                    <mxGeometry width="50" height="50" relative="1" as="geometry">
                        <mxPoint y="40" as="sourcePoint"/>
                        <mxPoint x="180" y="40" as="targetPoint"/>
                    </mxGeometry>
                </mxCell>
                <mxCell id="114" value="" style="group" parent="1" vertex="1" connectable="0">
                    <mxGeometry x="70" y="975.5699999999999" width="180" height="30" as="geometry"/>
                </mxCell>
                <mxCell id="115" value="" style="endArrow=classic;html=1;fontColor=#1D3557;strokeColor=#000000;jumpSize=24;endSize=11;startSize=7;" parent="114" edge="1">
                    <mxGeometry width="50" height="50" relative="1" as="geometry">
                        <mxPoint y="25" as="sourcePoint"/>
                        <mxPoint x="180" y="25" as="targetPoint"/>
                    </mxGeometry>
                </mxCell>
                <mxCell id="116" value="&lt;font style=&quot;font-size: 20px&quot;&gt;rx_frame_in_p&lt;/font&gt;" style="text;html=1;align=center;verticalAlign=middle;resizable=0;points=[];autosize=1;fontColor=#1D3557;strokeWidth=4;" parent="114" vertex="1">
                    <mxGeometry x="20" width="140" height="20" as="geometry"/>
                </mxCell>
                <mxCell id="117" value="" style="group" parent="1" vertex="1" connectable="0">
                    <mxGeometry x="70" y="1010.5699999999999" width="180" height="30" as="geometry"/>
                </mxCell>
                <mxCell id="118" value="" style="endArrow=classic;html=1;fontColor=#1D3557;strokeColor=#000000;jumpSize=24;endSize=11;startSize=7;" parent="117" edge="1">
                    <mxGeometry width="50" height="50" relative="1" as="geometry">
                        <mxPoint y="20" as="sourcePoint"/>
                        <mxPoint x="180" y="20" as="targetPoint"/>
                    </mxGeometry>
                </mxCell>
                <mxCell id="119" value="&lt;font style=&quot;font-size: 20px&quot;&gt;rx_frame_in_n&lt;/font&gt;" style="text;html=1;align=center;verticalAlign=middle;resizable=0;points=[];autosize=1;fontColor=#1D3557;strokeWidth=4;" parent="117" vertex="1">
                    <mxGeometry x="20" y="-5" width="140" height="20" as="geometry"/>
                </mxCell>
                <mxCell id="120" value="" style="group;strokeWidth=7;" parent="1" vertex="1" connectable="0">
                    <mxGeometry x="70" y="1034.57" width="180" height="30" as="geometry"/>
                </mxCell>
                <mxCell id="121" value="" style="endArrow=classic;html=1;fontColor=#1D3557;strokeColor=#000000;jumpSize=24;endSize=11;startSize=7;strokeWidth=3;" parent="120" edge="1">
                    <mxGeometry width="50" height="50" relative="1" as="geometry">
                        <mxPoint y="30" as="sourcePoint"/>
                        <mxPoint x="180" y="30" as="targetPoint"/>
                    </mxGeometry>
                </mxCell>
                <mxCell id="122" value="&lt;font style=&quot;font-size: 20px&quot;&gt;rx_data_in_p&lt;/font&gt;" style="text;html=1;align=center;verticalAlign=middle;resizable=0;points=[];autosize=1;fontColor=#1D3557;strokeWidth=4;" parent="120" vertex="1">
                    <mxGeometry x="25" y="5" width="130" height="20" as="geometry"/>
                </mxCell>
                <mxCell id="123" value="" style="group;strokeWidth=7;" parent="1" vertex="1" connectable="0">
                    <mxGeometry x="70" y="1074.57" width="180" height="30" as="geometry"/>
                </mxCell>
                <mxCell id="124" value="" style="endArrow=classic;html=1;fontColor=#1D3557;strokeColor=#000000;jumpSize=24;endSize=11;startSize=7;strokeWidth=3;" parent="123" edge="1">
                    <mxGeometry width="50" height="50" relative="1" as="geometry">
                        <mxPoint y="30" as="sourcePoint"/>
                        <mxPoint x="180" y="30" as="targetPoint"/>
                    </mxGeometry>
                </mxCell>
                <mxCell id="125" value="&lt;font style=&quot;font-size: 20px&quot;&gt;rx_data_in_n&lt;/font&gt;" style="text;html=1;align=center;verticalAlign=middle;resizable=0;points=[];autosize=1;fontColor=#1D3557;strokeWidth=4;" parent="123" vertex="1">
                    <mxGeometry x="25" y="5" width="130" height="20" as="geometry"/>
                </mxCell>
                <mxCell id="126" value="" style="group" parent="1" vertex="1" connectable="0">
                    <mxGeometry x="470" y="850" width="180" height="30" as="geometry"/>
                </mxCell>
                <mxCell id="127" value="" style="endArrow=classic;html=1;fontColor=#1D3557;strokeColor=#000000;jumpSize=24;endSize=11;startSize=7;strokeWidth=3;" parent="126" edge="1">
                    <mxGeometry width="50" height="50" relative="1" as="geometry">
                        <mxPoint y="30" as="sourcePoint"/>
                        <mxPoint x="180" y="30" as="targetPoint"/>
                    </mxGeometry>
                </mxCell>
                <mxCell id="128" value="&lt;font style=&quot;font-size: 20px&quot;&gt;adc_data_i1&lt;/font&gt;" style="text;html=1;align=center;verticalAlign=middle;resizable=0;points=[];autosize=1;fontColor=#1D3557;strokeWidth=4;" parent="126" vertex="1">
                    <mxGeometry x="30" y="5" width="120" height="20" as="geometry"/>
                </mxCell>
                <mxCell id="129" value="" style="group" parent="1" vertex="1" connectable="0">
                    <mxGeometry x="470" y="880" width="180" height="30" as="geometry"/>
                </mxCell>
                <mxCell id="130" value="" style="endArrow=classic;html=1;fontColor=#1D3557;strokeColor=#000000;jumpSize=24;endSize=11;startSize=7;strokeWidth=3;" parent="129" edge="1">
                    <mxGeometry width="50" height="50" relative="1" as="geometry">
                        <mxPoint y="30" as="sourcePoint"/>
                        <mxPoint x="180" y="30" as="targetPoint"/>
                    </mxGeometry>
                </mxCell>
                <mxCell id="131" value="&lt;font style=&quot;font-size: 20px&quot;&gt;adc_data_q1&lt;/font&gt;" style="text;html=1;align=center;verticalAlign=middle;resizable=0;points=[];autosize=1;fontColor=#1D3557;strokeWidth=4;" parent="129" vertex="1">
                    <mxGeometry x="25" y="5" width="130" height="20" as="geometry"/>
                </mxCell>
                <mxCell id="132" value="" style="group" parent="1" vertex="1" connectable="0">
                    <mxGeometry x="470" y="910" width="180" height="30" as="geometry"/>
                </mxCell>
                <mxCell id="133" value="" style="endArrow=classic;html=1;fontColor=#1D3557;strokeColor=#000000;jumpSize=24;endSize=11;startSize=7;" parent="132" edge="1">
                    <mxGeometry width="50" height="50" relative="1" as="geometry">
                        <mxPoint y="30" as="sourcePoint"/>
                        <mxPoint x="180" y="30" as="targetPoint"/>
                    </mxGeometry>
                </mxCell>
                <mxCell id="134" value="&lt;font style=&quot;font-size: 20px&quot;&gt;adc_valid&lt;/font&gt;" style="text;html=1;align=center;verticalAlign=middle;resizable=0;points=[];autosize=1;fontColor=#1D3557;strokeWidth=4;" parent="132" vertex="1">
                    <mxGeometry x="40" y="5" width="100" height="20" as="geometry"/>
                </mxCell>
                <mxCell id="135" value="" style="group" parent="1" vertex="1" connectable="0">
                    <mxGeometry x="470" y="940" width="180" height="30" as="geometry"/>
                </mxCell>
                <mxCell id="136" value="" style="endArrow=classic;html=1;fontColor=#1D3557;strokeColor=#000000;jumpSize=24;endSize=11;startSize=7;" parent="135" edge="1">
                    <mxGeometry width="50" height="50" relative="1" as="geometry">
                        <mxPoint y="30" as="sourcePoint"/>
                        <mxPoint x="180" y="30" as="targetPoint"/>
                    </mxGeometry>
                </mxCell>
                <mxCell id="137" value="&lt;font style=&quot;font-size: 20px&quot;&gt;rx_status&lt;/font&gt;" style="text;html=1;align=center;verticalAlign=middle;resizable=0;points=[];autosize=1;fontColor=#1D3557;strokeWidth=4;" parent="135" vertex="1">
                    <mxGeometry x="40" y="5" width="100" height="20" as="geometry"/>
                </mxCell>
                <mxCell id="141" value="" style="group" parent="1" vertex="1" connectable="0">
                    <mxGeometry x="470" y="970" width="180" height="30" as="geometry"/>
                </mxCell>
                <mxCell id="142" value="" style="endArrow=classic;html=1;fontColor=#1D3557;strokeColor=#000000;jumpSize=24;endSize=11;startSize=7;" parent="141" edge="1">
                    <mxGeometry width="50" height="50" relative="1" as="geometry">
                        <mxPoint y="30" as="sourcePoint"/>
                        <mxPoint x="180" y="30" as="targetPoint"/>
                    </mxGeometry>
                </mxCell>
                <mxCell id="143" value="&lt;font style=&quot;font-size: 20px&quot;&gt;user_clk&lt;/font&gt;" style="text;html=1;align=center;verticalAlign=middle;resizable=0;points=[];autosize=1;fontColor=#1D3557;strokeWidth=4;" parent="141" vertex="1">
                    <mxGeometry x="45" y="5" width="90" height="20" as="geometry"/>
                </mxCell>
                <mxCell id="144" value="&lt;font style=&quot;font-size: 20px&quot;&gt;rx_clk_in_p&lt;/font&gt;" style="text;html=1;align=center;verticalAlign=middle;resizable=0;points=[];autosize=1;fontColor=#1D3557;strokeWidth=4;" parent="1" vertex="1">
                    <mxGeometry x="100" y="925.5699999999999" width="120" height="20" as="geometry"/>
                </mxCell>
                <mxCell id="163" value="" style="group" parent="1" vertex="1" connectable="0">
                    <mxGeometry x="470" y="1020" width="210" height="30" as="geometry"/>
                </mxCell>
                <mxCell id="164" value="" style="endArrow=classic;html=1;fontColor=#1D3557;strokeColor=#000000;jumpSize=24;endSize=11;startSize=7;strokeWidth=3;" parent="163" edge="1">
                    <mxGeometry width="50" height="50" relative="1" as="geometry">
                        <mxPoint x="210" y="30" as="sourcePoint"/>
                        <mxPoint y="30" as="targetPoint"/>
                    </mxGeometry>
                </mxCell>
                <mxCell id="165" value="&lt;font style=&quot;font-size: 20px&quot;&gt;rx_delay_value&lt;/font&gt;" style="text;html=1;align=center;verticalAlign=middle;resizable=0;points=[];autosize=1;fontColor=#1D3557;strokeWidth=4;" parent="163" vertex="1">
                    <mxGeometry x="41.996500000000005" y="5" width="150" height="20" as="geometry"/>
                </mxCell>
                <mxCell id="166" value="" style="group" parent="1" vertex="1" connectable="0">
                    <mxGeometry x="470" y="1055" width="210" height="30" as="geometry"/>
                </mxCell>
                <mxCell id="167" value="" style="endArrow=classic;html=1;fontColor=#1D3557;strokeColor=#000000;jumpSize=24;endSize=11;startSize=7;strokeWidth=3;" parent="166" edge="1">
                    <mxGeometry width="50" height="50" relative="1" as="geometry">
                        <mxPoint x="210" y="30" as="sourcePoint"/>
                        <mxPoint y="30" as="targetPoint"/>
                    </mxGeometry>
                </mxCell>
                <mxCell id="168" value="&lt;font style=&quot;font-size: 20px&quot;&gt;rx_delay_load_en&lt;/font&gt;" style="text;html=1;align=center;verticalAlign=middle;resizable=0;points=[];autosize=1;fontColor=#1D3557;strokeWidth=4;" parent="166" vertex="1">
                    <mxGeometry x="30.003333333333337" y="5" width="170" height="20" as="geometry"/>
                </mxCell>
                <mxCell id="169" value="" style="group" parent="1" vertex="1" connectable="0">
                    <mxGeometry x="470" y="1090" width="180" height="30" as="geometry"/>
                </mxCell>
                <mxCell id="170" value="" style="endArrow=classic;html=1;fontColor=#1D3557;strokeColor=#000000;jumpSize=24;endSize=11;startSize=7;" parent="169" edge="1">
                    <mxGeometry width="50" height="50" relative="1" as="geometry">
                        <mxPoint x="180" y="30" as="sourcePoint"/>
                        <mxPoint y="30" as="targetPoint"/>
                    </mxGeometry>
                </mxCell>
                <mxCell id="171" value="&lt;font style=&quot;font-size: 20px&quot;&gt;ref_clk&lt;/font&gt;" style="text;html=1;align=center;verticalAlign=middle;resizable=0;points=[];autosize=1;fontColor=#1D3557;strokeWidth=4;" parent="169" vertex="1">
                    <mxGeometry x="55" y="5" width="70" height="20" as="geometry"/>
                </mxCell>
                <mxCell id="172" value="" style="group" parent="1" vertex="1" connectable="0">
                    <mxGeometry x="470" y="1120" width="180" height="30" as="geometry"/>
                </mxCell>
                <mxCell id="173" value="" style="endArrow=classic;html=1;fontColor=#1D3557;strokeColor=#000000;jumpSize=24;endSize=11;startSize=7;" parent="172" edge="1">
                    <mxGeometry width="50" height="50" relative="1" as="geometry">
                        <mxPoint x="180" y="30" as="sourcePoint"/>
                        <mxPoint y="30" as="targetPoint"/>
                    </mxGeometry>
                </mxCell>
                <mxCell id="174" value="&lt;font style=&quot;font-size: 20px&quot;&gt;rst&lt;/font&gt;" style="text;html=1;align=center;verticalAlign=middle;resizable=0;points=[];autosize=1;fontColor=#1D3557;strokeWidth=4;" parent="172" vertex="1">
                    <mxGeometry x="70" y="5" width="40" height="20" as="geometry"/>
                </mxCell>
                <mxCell id="175" value="&lt;font style=&quot;font-size: 24px&quot;&gt;ad936x_lvds_if_tx&lt;/font&gt;" style="whiteSpace=wrap;html=1;rounded=0;sketch=0;strokeColor=#457B9D;fillColor=#A8DADC;fontColor=#1D3557;" vertex="1" parent="1">
                    <mxGeometry x="250" y="1250" width="220" height="350" as="geometry"/>
                </mxCell>
                <mxCell id="221" value="" style="group" vertex="1" connectable="0" parent="1">
                    <mxGeometry x="470" y="1310" width="180" height="30" as="geometry"/>
                </mxCell>
                <mxCell id="222" value="" style="endArrow=classic;html=1;fontColor=#1D3557;strokeColor=#000000;jumpSize=24;endSize=11;startSize=7;strokeWidth=3;" edge="1" parent="221">
                    <mxGeometry width="50" height="50" relative="1" as="geometry">
                        <mxPoint y="30" as="sourcePoint"/>
                        <mxPoint x="180" y="30" as="targetPoint"/>
                    </mxGeometry>
                </mxCell>
                <mxCell id="223" value="&lt;font style=&quot;font-size: 20px&quot;&gt;tx_data_out_p&lt;/font&gt;" style="text;html=1;align=center;verticalAlign=middle;resizable=0;points=[];autosize=1;fontColor=#1D3557;strokeWidth=4;" vertex="1" parent="221">
                    <mxGeometry x="20" y="5" width="140" height="20" as="geometry"/>
                </mxCell>
                <mxCell id="224" value="" style="group" vertex="1" connectable="0" parent="1">
                    <mxGeometry x="470" y="1341" width="180" height="30" as="geometry"/>
                </mxCell>
                <mxCell id="225" value="" style="endArrow=classic;html=1;fontColor=#1D3557;strokeColor=#000000;jumpSize=24;endSize=11;startSize=7;strokeWidth=3;" edge="1" parent="224">
                    <mxGeometry width="50" height="50" relative="1" as="geometry">
                        <mxPoint y="30" as="sourcePoint"/>
                        <mxPoint x="180" y="30" as="targetPoint"/>
                    </mxGeometry>
                </mxCell>
                <mxCell id="226" value="&lt;font style=&quot;font-size: 20px&quot;&gt;tx_data_out_n&lt;/font&gt;" style="text;html=1;align=center;verticalAlign=middle;resizable=0;points=[];autosize=1;fontColor=#1D3557;strokeWidth=4;" vertex="1" parent="224">
                    <mxGeometry x="20" y="5" width="140" height="20" as="geometry"/>
                </mxCell>
                <mxCell id="227" value="" style="group" vertex="1" connectable="0" parent="1">
                    <mxGeometry x="470" y="1394.84" width="180" height="30" as="geometry"/>
                </mxCell>
                <mxCell id="228" value="" style="endArrow=classic;html=1;fontColor=#1D3557;strokeColor=#000000;jumpSize=24;endSize=11;startSize=7;" edge="1" parent="227">
                    <mxGeometry width="50" height="50" relative="1" as="geometry">
                        <mxPoint y="30" as="sourcePoint"/>
                        <mxPoint x="180" y="30" as="targetPoint"/>
                    </mxGeometry>
                </mxCell>
                <mxCell id="229" value="&lt;font style=&quot;font-size: 20px&quot;&gt;tx_frame_out_n&lt;/font&gt;" style="text;html=1;align=center;verticalAlign=middle;resizable=0;points=[];autosize=1;fontColor=#1D3557;strokeWidth=4;" vertex="1" parent="227">
                    <mxGeometry x="15" y="5" width="150" height="20" as="geometry"/>
                </mxCell>
                <mxCell id="230" value="" style="group" vertex="1" connectable="0" parent="227">
                    <mxGeometry y="-25" width="180" height="30" as="geometry"/>
                </mxCell>
                <mxCell id="231" value="" style="endArrow=classic;html=1;fontColor=#1D3557;strokeColor=#000000;jumpSize=24;endSize=11;startSize=7;strokeWidth=1;" edge="1" parent="230">
                    <mxGeometry width="50" height="50" relative="1" as="geometry">
                        <mxPoint y="30" as="sourcePoint"/>
                        <mxPoint x="180" y="30" as="targetPoint"/>
                    </mxGeometry>
                </mxCell>
                <mxCell id="232" value="&lt;font style=&quot;font-size: 20px&quot;&gt;tx_frame_out_p&lt;/font&gt;" style="text;html=1;align=center;verticalAlign=middle;resizable=0;points=[];autosize=1;fontColor=#1D3557;strokeWidth=4;" vertex="1" parent="230">
                    <mxGeometry x="15" y="5" width="150" height="20" as="geometry"/>
                </mxCell>
                <mxCell id="233" value="" style="group" vertex="1" connectable="0" parent="1">
                    <mxGeometry x="470" y="1424.84" width="180" height="30" as="geometry"/>
                </mxCell>
                <mxCell id="234" value="" style="endArrow=classic;html=1;fontColor=#1D3557;strokeColor=#000000;jumpSize=24;endSize=11;startSize=7;" edge="1" parent="233">
                    <mxGeometry width="50" height="50" relative="1" as="geometry">
                        <mxPoint y="30" as="sourcePoint"/>
                        <mxPoint x="180" y="30" as="targetPoint"/>
                    </mxGeometry>
                </mxCell>
                <mxCell id="235" value="&lt;font style=&quot;font-size: 20px&quot;&gt;tx_clk_out_p&lt;/font&gt;" style="text;html=1;align=center;verticalAlign=middle;resizable=0;points=[];autosize=1;fontColor=#1D3557;strokeWidth=4;" vertex="1" parent="233">
                    <mxGeometry x="25" y="5" width="130" height="20" as="geometry"/>
                </mxCell>
                <mxCell id="236" value="" style="group" vertex="1" connectable="0" parent="1">
                    <mxGeometry x="470" y="1454.84" width="180" height="30" as="geometry"/>
                </mxCell>
                <mxCell id="237" value="" style="endArrow=classic;html=1;fontColor=#1D3557;strokeColor=#000000;jumpSize=24;endSize=11;startSize=7;" edge="1" parent="236">
                    <mxGeometry width="50" height="50" relative="1" as="geometry">
                        <mxPoint y="30" as="sourcePoint"/>
                        <mxPoint x="180" y="30" as="targetPoint"/>
                    </mxGeometry>
                </mxCell>
                <mxCell id="238" value="&lt;font style=&quot;font-size: 20px&quot;&gt;tx_clk_out_n&lt;/font&gt;" style="text;html=1;align=center;verticalAlign=middle;resizable=0;points=[];autosize=1;fontColor=#1D3557;strokeWidth=4;" vertex="1" parent="236">
                    <mxGeometry x="25" y="5" width="130" height="20" as="geometry"/>
                </mxCell>
                <mxCell id="239" value="" style="group" vertex="1" connectable="0" parent="1">
                    <mxGeometry x="70" y="1350" width="180" height="30" as="geometry"/>
                </mxCell>
                <mxCell id="240" value="" style="endArrow=classic;html=1;fontColor=#1D3557;strokeColor=#000000;jumpSize=24;endSize=11;startSize=7;strokeWidth=3;" edge="1" parent="239">
                    <mxGeometry width="50" height="50" relative="1" as="geometry">
                        <mxPoint y="30" as="sourcePoint"/>
                        <mxPoint x="180" y="30" as="targetPoint"/>
                    </mxGeometry>
                </mxCell>
                <mxCell id="241" value="&lt;font style=&quot;font-size: 20px&quot;&gt;dac_data_i1&lt;/font&gt;" style="text;html=1;align=center;verticalAlign=middle;resizable=0;points=[];autosize=1;fontColor=#1D3557;strokeWidth=4;" vertex="1" parent="239">
                    <mxGeometry x="30" y="5" width="120" height="20" as="geometry"/>
                </mxCell>
                <mxCell id="242" value="" style="group" vertex="1" connectable="0" parent="1">
                    <mxGeometry x="70" y="1381" width="180" height="30" as="geometry"/>
                </mxCell>
                <mxCell id="243" value="" style="endArrow=classic;html=1;fontColor=#1D3557;strokeColor=#000000;jumpSize=24;endSize=11;startSize=7;strokeWidth=3;" edge="1" parent="242">
                    <mxGeometry width="50" height="50" relative="1" as="geometry">
                        <mxPoint y="30" as="sourcePoint"/>
                        <mxPoint x="180" y="30" as="targetPoint"/>
                    </mxGeometry>
                </mxCell>
                <mxCell id="244" value="&lt;font style=&quot;font-size: 20px&quot;&gt;dac_data_q1&lt;/font&gt;" style="text;html=1;align=center;verticalAlign=middle;resizable=0;points=[];autosize=1;fontColor=#1D3557;strokeWidth=4;" vertex="1" parent="242">
                    <mxGeometry x="25" y="5" width="130" height="20" as="geometry"/>
                </mxCell>
                <mxCell id="245" value="" style="group" vertex="1" connectable="0" parent="1">
                    <mxGeometry x="70" y="1440" width="180" height="30" as="geometry"/>
                </mxCell>
                <mxCell id="246" value="" style="endArrow=classic;html=1;fontColor=#1D3557;strokeColor=#000000;jumpSize=24;endSize=11;startSize=7;" edge="1" parent="245">
                    <mxGeometry width="50" height="50" relative="1" as="geometry">
                        <mxPoint y="30" as="sourcePoint"/>
                        <mxPoint x="180" y="30" as="targetPoint"/>
                    </mxGeometry>
                </mxCell>
                <mxCell id="247" value="&lt;font style=&quot;font-size: 20px&quot;&gt;rx_status&lt;/font&gt;" style="text;html=1;align=center;verticalAlign=middle;resizable=0;points=[];autosize=1;fontColor=#1D3557;strokeWidth=4;" vertex="1" parent="245">
                    <mxGeometry x="40" y="5" width="100" height="20" as="geometry"/>
                </mxCell>
                <mxCell id="248" value="" style="group" vertex="1" connectable="0" parent="245">
                    <mxGeometry y="-25" width="180" height="30" as="geometry"/>
                </mxCell>
                <mxCell id="249" value="" style="endArrow=classic;html=1;fontColor=#1D3557;strokeColor=#000000;jumpSize=24;endSize=11;startSize=7;strokeWidth=1;" edge="1" parent="248">
                    <mxGeometry width="50" height="50" relative="1" as="geometry">
                        <mxPoint y="30" as="sourcePoint"/>
                        <mxPoint x="180" y="30" as="targetPoint"/>
                    </mxGeometry>
                </mxCell>
                <mxCell id="250" value="&lt;font style=&quot;font-size: 20px&quot;&gt;dac_valid&lt;/font&gt;" style="text;html=1;align=center;verticalAlign=middle;resizable=0;points=[];autosize=1;fontColor=#1D3557;strokeWidth=4;" vertex="1" parent="248">
                    <mxGeometry x="40" y="5" width="100" height="20" as="geometry"/>
                </mxCell>
                <mxCell id="251" value="" style="group" vertex="1" connectable="0" parent="1">
                    <mxGeometry x="70" y="1465" width="180" height="30" as="geometry"/>
                </mxCell>
                <mxCell id="252" value="" style="endArrow=classic;html=1;fontColor=#1D3557;strokeColor=#000000;jumpSize=24;endSize=11;startSize=7;" edge="1" parent="251">
                    <mxGeometry width="50" height="50" relative="1" as="geometry">
                        <mxPoint y="30" as="sourcePoint"/>
                        <mxPoint x="180" y="30" as="targetPoint"/>
                    </mxGeometry>
                </mxCell>
                <mxCell id="253" value="&lt;font style=&quot;font-size: 20px&quot;&gt;fb_clk&lt;/font&gt;" style="text;html=1;align=center;verticalAlign=middle;resizable=0;points=[];autosize=1;fontColor=#1D3557;strokeWidth=4;" vertex="1" parent="251">
                    <mxGeometry x="55" y="5" width="70" height="20" as="geometry"/>
                </mxCell>
                <mxCell id="254" value="" style="group" vertex="1" connectable="0" parent="1">
                    <mxGeometry x="70" y="1310" width="180" height="30" as="geometry"/>
                </mxCell>
                <mxCell id="218" value="" style="group" vertex="1" connectable="0" parent="254">
                    <mxGeometry width="180" height="30" as="geometry"/>
                </mxCell>
                <mxCell id="220" value="&lt;font style=&quot;font-size: 20px&quot;&gt;rst&lt;/font&gt;" style="text;html=1;align=center;verticalAlign=middle;resizable=0;points=[];autosize=1;fontColor=#1D3557;strokeWidth=4;" vertex="1" parent="218">
                    <mxGeometry x="70" y="5" width="40" height="20" as="geometry"/>
                </mxCell>
                <mxCell id="219" value="" style="endArrow=classic;html=1;fontColor=#1D3557;strokeColor=#000000;jumpSize=24;endSize=11;startSize=7;" edge="1" parent="254">
                    <mxGeometry width="50" height="50" relative="1" as="geometry">
                        <mxPoint y="25.5" as="sourcePoint"/>
                        <mxPoint x="180" y="25.5" as="targetPoint"/>
                    </mxGeometry>
                </mxCell>
            </root>
        </mxGraphModel>
    </diagram>
</mxfile>